0
SECTION
2
HEADER
9
$INSUNITS
70
4
9
$ACADVER
1
AC1014
9
$HANDSEED
5
FFFF
0
ENDSEC
0
SECTION
2
TABLES
0
TABLE
2
VPORT
5
8
100
AcDbSymbolTable
0
ENDTAB
0
TABLE
2
LTYPE
5
5
100
AcDbSymbolTable
0
LTYPE
5
14
100
AcDbSymbolTableRecord
100
AcDbLinetypeTableRecord
2
BYBLOCK
70
0
0
LTYPE
5
15
100
AcDbSymbolTableRecord
100
AcDbLinetypeTableRecord
2
BYLAYER
70
0
0
ENDTAB
0
TABLE
2
LAYER
5
2
100
AcDbSymbolTable
70
2
0
LAYER
5
50
100
AcDbSymbolTableRecord
100
AcDbLayerTableRecord
2
0
70
0
6
CONTINUOUS
0
ENDTAB
0
TABLE
2
STYLE
5
3
100
AcDbSymbolTable
70
1
0
STYLE
5
11
100
AcDbSymbolTableRecord
100
AcDbTextStyleTableRecord
2
STANDARD
70
0
0
ENDTAB
0
TABLE
2
VIEW
5
6
100
AcDbSymbolTable
70
0
0
ENDTAB
0
TABLE
2
UCS
5
7
100
AcDbSymbolTable
70
0
0
ENDTAB
0
TABLE
2
APPID
5
9
100
AcDbSymbolTable
70
2
0
APPID
5
12
100
AcDbSymbolTableRecord
100
AcDbRegAppTableRecord
2
ACAD
70
0
0
ENDTAB
0
TABLE
2
DIMSTYLE
5
A
100
AcDbSymbolTable
70
1
0
ENDTAB
0
TABLE
2
BLOCK_RECORD
5
1
100
AcDbSymbolTable
70
1
0
BLOCK_RECORD
5
1F
100
AcDbSymbolTableRecord
100
AcDbBlockTableRecord
2
*MODEL_SPACE
0
BLOCK_RECORD
5
1B
100
AcDbSymbolTableRecord
100
AcDbBlockTableRecord
2
*PAPER_SPACE
0
ENDTAB
0
ENDSEC
0
SECTION
2
BLOCKS
0
BLOCK
5
20
100
AcDbEntity
100
AcDbBlockBegin
2
*MODEL_SPACE
0
ENDBLK
5
21
100
AcDbEntity
100
AcDbBlockEnd
0
BLOCK
5
1C
100
AcDbEntity
100
AcDbBlockBegin
2
*PAPER_SPACE
0
ENDBLK
5
1D
100
AcDbEntity
100
AcDbBlockEnd
0
ENDSEC
0
SECTION
2
ENTITIES
0
LWPOLYLINE
5
100
100
AcDbEntity
8
0
100
AcDbPolyline
90
8
70
1
43
0.0
10
-89.224999999999994
20
78.22499999999998
10
-89.22499999999998
20
92.224999999999994
42
-0.41421356237316787
10
-88.724999999999994
20
92.725000000000009
10
-77.96875
20
92.725000000000023
42
-0.41421356237307944
10
-77.468750000000014
20
92.225000000000023
10
-77.46875
20
78.22499999999998
42
-0.41421356237313667
10
-77.96875
20
77.72499999999998
10
-88.724999999999994
20
77.725000000000037
42
-0.41421356237307944
0
LWPOLYLINE
5
101
100
AcDbEntity
8
0
100
AcDbPolyline
90
8
70
1
43
0.0
10
-173.46900000000002
20
80.775000000000034
10
-173.46900000000002
20
90.675000000000011
42
-0.41421356237309503
10
-172.91900000000001
20
91.225000000000009
10
-154.42499999999998
20
91.225000000000009
42
-0.41421356237309503
10
-153.875
20
90.675000000000011
10
-153.875
20
80.774999999999991
42
-0.41421356237309503
10
-154.42500000000001
20
80.224999999999994
10
-172.91900000000001
20
80.225000000000051
42
-0.41421356237309503
0
LWPOLYLINE
5
102
100
AcDbEntity
8
0
100
AcDbPolyline
90
8
70
1
43
0.0
10
-93.22475
20
90.674999999999983
10
-93.22475
20
80.774999999999935
42
-0.41421356237309503
10
-93.774750000000012
20
80.224999999999937
10
-119.41874999999999
20
80.224999999999966
42
-0.41421356237309503
10
-119.96875
20
80.774999999999977
10
-119.96875000000001
20
90.674999999999983
42
-0.41421356237309503
10
-119.41875000000002
20
91.224999999999994
10
-93.774750000000012
20
91.224999999999994
42
-0.41421356237309503
0
LWPOLYLINE
5
103
100
AcDbEntity
8
0
100
AcDbPolyline
90
8
70
1
43
0.0
10
-123.96875000000001
20
92.224999999999994
10
-123.96875000000001
20
79.22499999999998
42
-0.41421356237304302
10
-124.46875
20
78.72499999999998
10
-149.375
20
78.725000000000023
42
-0.41421356237313145
10
-149.875
20
79.22499999999998
10
-149.87500000000003
20
92.224999999999994
42
-0.41421356237312623
10
-149.375
20
92.725000000000051
10
-124.46875
20
92.725000000000023
42
-0.41421356237309503
0
LWPOLYLINE
5
104
100
AcDbEntity
8
0
100
AcDbPolyline
90
8
70
1
43
0.0
10
-186.96875000000003
20
90.675000000000011
10
-186.96875000000003
20
80.775000000000034
42
-0.41421356237309503
10
-187.51875000000001
20
80.225000000000051
10
-192.85675000000001
20
80.225000000000065
42
-0.41421356237309503
10
-193.40675000000002
20
80.775000000000063
10
-193.40675000000002
20
90.675000000000011
42
-0.41421356237309503
10
-192.85675000000001
20
91.225000000000009
10
-187.51875000000001
20
91.225000000000009
42
-0.41421356237309503
0
LWPOLYLINE
5
105
100
AcDbEntity
8
0
100
AcDbPolyline
90
8
70
1
43
0.0
10
-177.46875
20
92.224999999999994
10
-177.46875000000003
20
78.22499999999998
42
-0.4142135623730534
10
-177.96875
20
77.725000000000023
10
-183.96875
20
77.725000000000009
42
-0.41421356237303258
10
-184.46875000000003
20
78.22499999999998
10
-184.46875
20
92.224999999999994
42
-0.41421356237301177
10
-183.96875
20
92.725000000000023
10
-177.96875
20
92.725000000000009
42
-0.41421356237313667
0
LWPOLYLINE
5
106
100
AcDbEntity
8
0
100
AcDbPolyline
90
104
70
1
43
0.0
10
-304.80000000000007
20
1.6000000000000014
42
0.41421356237309465
10
-303.20000000000005
20
2.2204460492503131e-15
10
-264.42500000000007
20
-1.4190038033490282e-14
42
-0.41421356237309509
10
-264.17500000000007
20
-0.25
10
-264.17500000000007
20
-0.50000000000000022
42
-0.41421356237309503
10
-264.42500000000007
20
-0.75000000000000011
10
-286.57500000000005
20
-0.75000000000000011
42
0.41421356237311141
10
-287.17500000000001
20
-1.3500000000000001
10
-287.17500000000007
20
-3.9500000000000002
42
0.41421356237310542
10
-286.17500000000007
20
-4.9499999999999789
10
-228.1750000000001
20
-4.9500000000000002
42
0.41421356237310542
10
-227.17500000000004
20
-3.9500000000000002
10
-227.17500000000007
20
-1.3500000000000001
42
0.41421356237310292
10
-227.77500000000006
20
-0.74999999999999678
10
-249.92500000000007
20
-0.74999999999998601
42
-0.41421356237309515
10
-250.17500000000007
20
-0.5
10
-250.17500000000007
20
-0.25
42
-0.41421356237309503
10
-249.92500000000007
20
0
10
-159.65000000000006
20
3.5735303605122226e-15
42
-0.41421356237309509
10
-159.40000000000003
20
-0.25
10
-159.40000000000003
20
-0.50000000000000022
42
-0.41421356237309503
10
-159.65000000000006
20
-0.75000000000000011
10
-181.80000000000001
20
-0.75000000000000011
42
0.41421356237311141
10
-182.39999999999995
20
-1.3500000000000001
10
-182.40000000000003
20
-3.9500000000000002
42
0.41421356237310542
10
-181.40000000000001
20
-4.9499999999999789
10
-123.40000000000003
20
-4.9500000000000002
42
0.41421356237309687
10
-122.40000000000003
20
-3.9500000000000002
10
-122.40000000000003
20
-1.3500000000000001
42
0.41421356237309548
10
-123.00000000000004
20
-0.74999999999999423
10
-145.15000000000003
20
-0.75000000000000377
42
-0.41421356237309515
10
-145.40000000000003
20
-0.5
10
-145.40000000000003
20
-0.25
42
-0.41421356237309503
10
-145.15000000000003
20
0
10
-54.875000000000007
20
3.5735303605122226e-15
42
-0.41421356237309509
10
-54.625
20
-0.25
10
-54.625000000000014
20
-0.50000000000000022
42
-0.41421356237309503
10
-54.875000000000014
20
-0.75000000000000011
10
-77.02500000000002
20
-0.75000000000000011
42
0.41421356237309598
10
-77.625000000000014
20
-1.3500000000000001
10
-77.625000000000014
20
-3.9500000000000002
42
0.41421356237309537
10
-76.625000000000014
20
-4.9499999999999975
10
-18.625000000000007
20
-4.9500000000000002
42
0.41421356237309243
10
-17.625000000000011
20
-3.9500000000000002
10
-17.625000000000011
20
-1.3500000000000001
42
0.41421356237309287
10
-18.225000000000012
20
-0.74999999999999956
10
-40.375000000000007
20
-0.75000000000000377
42
-0.41421356237309515
10
-40.625000000000007
20
-0.5
10
-40.625000000000014
20
-0.25
42
-0.41421356237309503
10
-40.375000000000014
20
0
10
-1.6000000000000014
20
0
42
0.41421356237309531
10
-1.1102230246251565e-15
20
1.6000000000000005
10
0
20
93.650000000000006
42
0.41421356237309642
10
-1.600000000000001
20
95.25
10
-40.375000000000007
20
95.25
42
-0.41421356237309503
10
-40.625000000000007
20
95.5
10
-40.625000000000007
20
95.750000000000028
42
-0.41421356237309503
10
-40.375000000000007
20
96.000000000000028
10
-18.225000000000012
20
96.000000000000014
42
0.41421356237310802
10
-17.625000000000014
20
96.600000000000023
10
-17.625000000000011
20
99.199999999999989
42
0.41421356237309631
10
-18.625000000000011
20
100.19999999999997
10
-76.625000000000014
20
100.19999999999999
42
0.41421356237309503
10
-77.625000000000014
20
99.200000000000003
10
-77.625000000000014
20
96.600000000000037
42
0.41421356237309076
10
-77.02500000000002
20
96.000000000000028
10
-54.875000000000014
20
96.000000000000014
42
-0.41421356237309503
10
-54.625000000000014
20
95.750000000000014
10
-54.625000000000014
20
95.5
42
-0.41421356237309503
10
-54.875000000000014
20
95.25
10
-145.15000000000001
20
95.25
42
-0.41421356237311585
10
-145.40000000000003
20
95.5
10
-145.40000000000003
20
95.750000000000028
42
-0.41421356237309503
10
-145.15000000000003
20
96.000000000000028
10
-123.00000000000004
20
96.000000000000014
42
0.41421356237310375
10
-122.40000000000002
20
96.600000000000023
10
-122.40000000000003
20
99.199999999999989
42
0.41421356237310542
10
-123.40000000000003
20
100.19999999999997
10
-181.40000000000001
20
100.19999999999999
42
0.41421356237308982
10
-182.40000000000003
20
99.200000000000003
10
-182.40000000000003
20
96.600000000000037
42
0.41421356237312101
10
-181.80000000000001
20
96.000000000000028
10
-159.65000000000003
20
96.000000000000014
42
-0.41421356237309503
10
-159.40000000000003
20
95.750000000000014
10
-159.40000000000003
20
95.5
42
-0.41421356237309503
10
-159.65000000000006
20
95.25
10
-249.92500000000007
20
95.250000000000028
42
-0.41421356237309503
10
-250.17500000000007
20
95.5
10
-250.17500000000007
20
95.750000000000028
42
-0.41421356237309503
10
-249.92500000000007
20
96.000000000000028
10
-227.77500000000009
20
96.000000000000014
42
0.41421356237309503
10
-227.17500000000007
20
96.600000000000023
10
-227.17500000000007
20
99.199999999999989
42
0.41421356237310542
10
-228.1750000000001
20
100.19999999999996
10
-286.17500000000007
20
100.19999999999999
42
0.41421356237308982
10
-287.17500000000007
20
99.200000000000003
10
-287.17500000000007
20
96.600000000000037
42
0.41421356237312101
10
-286.57500000000005
20
96.000000000000028
10
-264.42500000000007
20
96
42
-0.41421356237309503
10
-264.17500000000007
20
95.750000000000014
10
-264.17500000000007
20
95.5
42
-0.41421356237309503
10
-264.42500000000007
20
95.25
10
-303.20000000000005
20
95.25
42
0.41421356237309503
10
-304.80000000000007
20
93.650000000000006
0
LWPOLYLINE
5
107
100
AcDbEntity
8
0
100
AcDbPolyline
90
8
70
1
43
0.0
10
-206.52500000000003
20
16.525000000000002
10
-193.52500000000006
20
16.524999999999991
42
-0.41421356237312756
10
-193.02500000000006
20
16.024999999999999
10
-193.02500000000003
20
3.0249999999999999
42
-0.41421356237310769
10
-193.52500000000006
20
2.5249999999999999
10
-206.52500000000003
20
2.5250000000000075
42
-0.41421356237312817
10
-207.02500000000003
20
3.0249999999999999
10
-207.02499999999998
20
16.024999999999999
42
-0.41421356237309631
0
LWPOLYLINE
5
108
100
AcDbEntity
8
0
100
AcDbPolyline
90
8
70
1
43
0.0
10
-269.22500000000002
20
92.224999999999994
10
-269.22500000000002
20
79.22499999999998
42
-0.41421356237310542
10
-269.72500000000002
20
78.724999999999994
10
-282.72500000000008
20
78.724999999999937
42
-0.41421356237305862
10
-283.22500000000002
20
79.22499999999998
10
-283.22500000000002
20
92.224999999999994
42
-0.41421356237306384
10
-282.72500000000002
20
92.725000000000023
10
-269.72500000000002
20
92.725000000000023
42
-0.4142135623730222
0
LWPOLYLINE
5
109
100
AcDbEntity
8
0
100
AcDbPolyline
90
8
70
1
43
0.0
10
-135.875
20
16.024999999999999
42
0.41421356237305729
10
-136.375
20
16.525000000000013
10
-149.375
20
16.525000000000002
42
0.41421356237309243
10
-149.875
20
16.024999999999999
10
-149.875
20
3.0249999999999999
42
0.41421356237310608
10
-149.375
20
2.5250000000000106
10
-136.375
20
2.5249999999999999
42
0.41421356237306839
10
-135.875
20
3.0249999999999999
0
LWPOLYLINE
5
110
100
AcDbEntity
8
0
100
AcDbPolyline
90
8
70
1
43
0.0
10
-174.47500000000005
20
2.525000000000015
10
-187.47499999999999
20
2.5249999999999737
42
-0.41421356237314771
10
-187.97499999999999
20
3.0249999999999999
10
-187.97499999999997
20
16.024999999999999
42
-0.41421356237311452
10
-187.47499999999999
20
16.52500000000002
10
-174.47500000000005
20
16.524999999999995
42
-0.41421356237310936
10
-173.97500000000002
20
16.024999999999999
10
-173.97500000000005
20
3.0249999999999999
42
-0.41421356237312817
0
LWPOLYLINE
5
111
100
AcDbEntity
8
0
100
AcDbPolyline
90
8
70
1
43
0.0
10
-21.574999999999989
20
16.024999999999999
10
-21.57500000000001
20
3.0249999999999999
42
-0.4142135623730846
10
-22.074999999999999
20
2.5250000000000004
10
-35.075000000000003
20
2.5249999999999995
42
-0.41421356237309631
10
-35.57500000000001
20
3.0249999999999999
10
-35.57500000000001
20
16.024999999999999
42
-0.41421356237310414
10
-35.074999999999996
20
16.525000000000002
10
-22.074999999999996
20
16.525000000000016
42
-0.41421356237310025
0
LWPOLYLINE
5
112
100
AcDbEntity
8
0
100
AcDbPolyline
90
8
70
1
43
0.0
10
-92.224999999999994
20
16.524999999999995
42
0.41421356237311197
10
-92.725000000000051
20
16.024999999999999
10
-92.725000000000023
20
3.0249999999999999
42
0.41421356237310281
10
-92.224999999999994
20
2.5249999999999928
10
-79.22499999999998
20
2.5249999999999972
42
0.41421356237307488
10
-78.724999999999994
20
3.0249999999999999
10
-78.724999999999994
20
16.024999999999999
42
0.41421356237307555
10
-79.224999999999994
20
16.524999999999999
0
LWPOLYLINE
5
113
100
AcDbEntity
8
0
100
AcDbPolyline
90
8
70
1
43
0.0
10
-225.57500000000002
20
16.525000000000002
10
-212.57499999999999
20
16.524999999999991
42
-0.41421356237312756
10
-212.07499999999999
20
16.024999999999999
10
-212.07499999999996
20
3.0249999999999999
42
-0.41421356237310769
10
-212.57499999999999
20
2.5249999999999999
10
-225.57500000000002
20
2.5249999999999955
42
-0.414213562373135
10
-226.07500000000002
20
3.0249999999999999
10
-226.07499999999999
20
16.024999999999999
42
-0.41421356237318741
0
LWPOLYLINE
5
114
100
AcDbEntity
8
0
100
AcDbPolyline
90
8
70
1
43
0.0
10
-116.82500000000002
20
16.024999999999999
10
-116.82500000000003
20
3.0249999999999999
42
-0.41421356237312235
10
-117.32500000000002
20
2.5250000000000021
10
-130.32499999999999
20
2.5249999999999941
42
-0.41421356237309437
10
-130.82499999999999
20
3.0249999999999999
10
-130.82499999999999
20
16.024999999999999
42
-0.41421356237310542
10
-130.32499999999999
20
16.524999999999988
10
-117.32500000000002
20
16.525000000000006
42
-0.41421356237303258
0
LWPOLYLINE
5
115
100
AcDbEntity
8
0
100
AcDbPolyline
90
8
70
1
43
0.0
10
-2.5249999999999999
20
16.024999999999999
42
0.4142135623730957
10
-3.0249999999999999
20
16.524999999999999
10
-16.024999999999999
20
16.525000000000002
42
0.41421356237308982
10
-16.524999999999999
20
16.024999999999999
10
-16.525000000000002
20
3.0249999999999999
42
0.41421356237309859
10
-16.024999999999991
20
2.5249999999999995
10
-3.0249999999999999
20
2.5249999999999999
42
0.41421356237309437
10
-2.5250000000000128
20
3.0249999999999999
0
LWPOLYLINE
5
116
100
AcDbEntity
8
0
100
AcDbPolyline
90
8
70
1
43
0.0
10
-41.125000000000007
20
2.5249999999999995
10
-54.125000000000014
20
2.5250000000000004
42
-0.4142135623731113
10
-54.625
20
3.0249999999999999
10
-54.625
20
16.024999999999999
42
-0.41421356237307161
10
-54.125000000000014
20
16.525000000000002
10
-41.124999999999972
20
16.525000000000002
42
-0.41421356237307033
10
-40.625
20
16.024999999999999
10
-40.625
20
3.0249999999999999
42
-0.4142135623730781
0
LWPOLYLINE
5
117
100
AcDbEntity
8
0
100
AcDbPolyline
90
8
70
1
43
0.0
10
-97.77500000000002
20
16.024999999999999
42
0.41421356237312101
10
-98.275000000000006
20
16.524999999999999
10
-111.27500000000001
20
16.525000000000002
42
0.41421356237309243
10
-111.77500000000002
20
16.024999999999999
10
-111.77500000000002
20
3.0249999999999999
42
0.41421356237310608
10
-111.27500000000001
20
2.5250000000000106
10
-98.275000000000006
20
2.5249999999999999
42
0.41421356237307488
10
-97.775000000000034
20
3.0249999999999999
0
LWPOLYLINE
5
118
100
AcDbEntity
8
0
100
AcDbPolyline
90
8
70
1
43
0.0
10
-301.77499999999998
20
35.57500000000001
42
0.41421356237314444
10
-302.27499999999998
20
35.075000000000003
10
-302.27499999999998
20
22.074999999999999
42
0.41421356237315748
10
-301.77499999999998
20
21.575000000000017
10
-288.77499999999998
20
21.575000000000006
42
0.41421356237309243
10
-288.27500000000003
20
22.074999999999999
10
-288.27499999999998
20
35.075000000000003
42
0.41421356237302998
10
-288.77499999999998
20
35.575000000000038
0
LWPOLYLINE
5
119
100
AcDbEntity
8
0
100
AcDbPolyline
90
8
70
1
43
0.0
10
-168.42500000000001
20
16.525000000000002
42
0.41421356237304952
10
-168.92500000000001
20
16.024999999999999
10
-168.92500000000001
20
3.0249999999999999
42
0.41421356237312817
10
-168.42500000000001
20
2.525000000000015
10
-155.42500000000001
20
2.5249999999999999
42
0.41421356237306839
10
-154.92500000000001
20
3.0249999999999999
10
-154.92500000000001
20
16.024999999999999
42
0.41421356237305862
10
-155.42500000000001
20
16.525000000000006
0
LWPOLYLINE
5
120
100
AcDbEntity
8
0
100
AcDbPolyline
90
8
70
1
43
0.0
10
-145.90000000000001
20
21.575000000000006
10
-158.90000000000001
20
21.575000000000006
42
-0.41421356237310802
10
-159.40000000000001
20
22.074999999999999
10
-159.40000000000001
20
35.075000000000003
42
-0.41421356237309243
10
-158.90000000000001
20
35.57500000000001
10
-145.90000000000001
20
35.575000000000017
42
-0.41421356237305601
10
-145.40000000000001
20
35.075000000000003
10
-145.40000000000001
20
22.074999999999999
42
-0.41421356237306384
0
LWPOLYLINE
5
121
100
AcDbEntity
8
0
100
AcDbPolyline
90
8
70
1
43
0.0
10
-177.94999999999999
20
35.57500000000001
10
-164.95000000000005
20
35.575000000000017
42
-0.41421356237307683
10
-164.44999999999999
20
35.075000000000003
10
-164.44999999999999
20
22.074999999999999
42
-0.41421356237307683
10
-164.95000000000005
20
21.575000000000006
10
-177.94999999999999
20
21.575000000000028
42
-0.41421356237315748
10
-178.44999999999999
20
22.074999999999999
10
-178.44999999999999
20
35.075000000000003
42
-0.41421356237314444
0
LWPOLYLINE
5
122
100
AcDbEntity
8
0
100
AcDbPolyline
90
8
70
1
43
0.0
10
-50.150000000000006
20
35.075000000000003
10
-50.15000000000002
20
22.074999999999999
42
-0.41421356237310542
10
-50.650000000000013
20
21.575000000000006
10
-63.65000000000002
20
21.574999999999996
42
-0.41421356237307161
10
-64.150000000000006
20
22.074999999999999
10
-64.150000000000006
20
35.075000000000003
42
-0.41421356237309503
10
-63.65000000000002
20
35.57500000000001
10
-50.650000000000013
20
35.575000000000024
42
-0.41421356237309243
0
LWPOLYLINE
5
123
100
AcDbEntity
8
0
100
AcDbPolyline
90
8
70
1
43
0.0
10
-217.33749999999998
20
78.724999999999966
42
0.41421356237311063
10
-216.83750000000003
20
79.22499999999998
10
-216.83750000000003
20
92.224999999999994
42
0.41421356237311585
10
-217.33750000000001
20
92.724999999999994
10
-232.71875000000006
20
92.725000000000023
42
0.41421356237310542
10
-233.21875000000006
20
92.224999999999994
10
-233.21875000000009
20
79.22499999999998
42
0.41421356237317308
10
-232.71875
20
78.724999999999994
0
LWPOLYLINE
5
124
100
AcDbEntity
8
0
100
AcDbPolyline
90
14
70
1
43
0.0
10
-203.52500000000006
20
78.22499999999998
42
0.41421356237308982
10
-203.02500000000006
20
77.725000000000051
10
-197.02500000000003
20
77.72499999999998
42
0.41421356237316787
10
-196.52500000000003
20
78.22499999999998
10
-196.52500000000003
20
78.724999999999994
10
-195.90625000000003
20
78.725000000000023
42
0.41421356237309503
10
-195.40625000000006
20
79.22499999999998
10
-195.40625000000003
20
92.22499999999998
42
0.41421356237304302
10
-195.90625000000003
20
92.724999999999966
10
-208.90625
20
92.724999999999966
42
0.41421356237301177
10
-209.40625
20
92.22499999999998
10
-209.40625
20
79.22499999999998
42
0.41421356237315748
10
-208.90625
20
78.725000000000023
10
-203.52500000000006
20
78.724999999999994
0
LWPOLYLINE
5
125
100
AcDbEntity
8
0
100
AcDbPolyline
90
8
70
1
43
0.0
10
-4.9062500000000142
20
54.125000000000014
10
-4.9062500000000062
20
41.125000000000007
42
-0.41421356237307161
10
-5.40625
20
40.625
10
-23.168749999999996
20
40.625
42
-0.41421356237309764
10
-23.668749999999999
20
41.125
10
-23.668749999999999
20
54.125000000000014
42
-0.41421356237311063
10
-23.168749999999999
20
54.625
10
-5.4062499999999858
20
54.624999999999986
42
-0.41421356237306384
0
LWPOLYLINE
5
126
100
AcDbEntity
8
0
100
AcDbPolyline
90
8
70
1
43
0.0
10
-35.862499999999997
20
54.125000000000014
10
-35.862500000000026
20
41.125000000000007
42
-0.41421356237310281
10
-36.362499999999997
20
40.625
10
-49.362500000000011
20
40.625
42
-0.41421356237308982
10
-49.862499999999997
20
41.125
10
-49.862500000000011
20
54.125000000000014
42
-0.41421356237307422
10
-49.362500000000004
20
54.625
10
-36.362500000000004
20
54.625000000000021
42
-0.41421356237307683
0
LWPOLYLINE
5
127
100
AcDbEntity
8
0
100
AcDbPolyline
90
8
70
1
43
0.0
10
-235.60000000000002
20
22.074999999999999
42
0.41421356237315748
10
-235.10000000000002
20
21.575000000000028
10
-222.10000000000002
20
21.575000000000006
42
0.4142135623730378
10
-221.60000000000002
20
22.074999999999999
10
-221.59999999999999
20
35.075000000000003
42
0.41421356237310802
10
-222.10000000000002
20
35.575000000000017
10
-235.10000000000002
20
35.57500000000001
42
0.41421356237314444
10
-235.60000000000002
20
35.075000000000003
0
LWPOLYLINE
5
128
100
AcDbEntity
8
0
100
AcDbPolyline
90
8
70
1
43
0.0
10
-241.15000000000006
20
21.575000000000006
42
0.41421356237307683
10
-240.65000000000003
20
22.074999999999999
10
-240.65000000000001
20
35.075000000000003
42
0.41421356237307422
10
-241.15000000000006
20
35.57500000000001
10
-254.15000000000003
20
35.57500000000001
42
0.41421356237307944
10
-254.65000000000003
20
35.075000000000003
10
-254.65000000000003
20
22.074999999999999
42
0.41421356237305079
10
-254.15000000000006
20
21.574999999999989
0
LWPOLYLINE
5
129
100
AcDbEntity
8
0
100
AcDbPolyline
90
8
70
1
43
0.0
10
-264.46249999999998
20
35.075000000000003
10
-264.46249999999998
20
22.074999999999999
42
-0.41421356237316526
10
-264.96249999999998
20
21.575000000000006
10
-277.96249999999998
20
21.574999999999992
42
-0.41421356237307422
10
-278.46250000000003
20
22.074999999999999
10
-278.46250000000003
20
35.075000000000003
42
-0.41421356237307422
10
-277.96249999999998
20
35.57500000000001
10
-264.96249999999998
20
35.575000000000003
42
-0.41421356237313406
0
LWPOLYLINE
5
130
100
AcDbEntity
8
0
100
AcDbPolyline
90
8
70
1
43
0.0
10
-169.71250000000001
20
40.625
42
0.41421356237313667
10
-169.21250000000001
20
41.125
10
-169.21250000000001
20
54.125000000000014
42
0.41421356237315748
10
-169.71250000000001
20
54.624999999999993
10
-182.71250000000006
20
54.625
42
0.41421356237307944
10
-183.21250000000006
20
54.125000000000014
10
-183.21250000000003
20
41.125
42
0.41421356237310025
10
-182.71250000000006
20
40.625
0
LWPOLYLINE
5
131
100
AcDbEntity
8
0
100
AcDbPolyline
90
8
70
1
43
0.0
10
-53.031250000000014
20
78.724999999999994
10
-68.412499999999994
20
78.724999999999994
42
-0.41421356237310025
10
-68.912499999999994
20
79.22499999999998
10
-68.91249999999998
20
92.224999999999966
42
-0.4142135623730846
10
-68.412499999999994
20
92.725000000000009
10
-53.031250000000014
20
92.725000000000009
42
-0.41421356237303258
10
-52.531250000000014
20
92.224999999999994
10
-52.531250000000007
20
79.22499999999998
42
-0.41421356237307422
0
LWPOLYLINE
5
132
100
AcDbEntity
8
0
100
AcDbPolyline
90
8
70
1
43
0.0
10
-255.38075000000006
20
55.625000000000028
10
-249.38075000000001
20
55.625000000000007
42
-0.41421356237313667
10
-248.88075000000001
20
55.125
10
-248.88075000000001
20
40.125
42
-0.41421356237314183
10
-249.38075000000001
20
39.625
10
-255.38075000000003
20
39.625
42
-0.41421356237317308
10
-255.88075000000003
20
40.125
10
-255.88075000000003
20
55.125
42
-0.41421356237313145
0
LWPOLYLINE
5
133
100
AcDbEntity
8
0
100
AcDbPolyline
90
8
70
1
43
0.0
10
-145.11250000000001
20
41.125
10
-145.11250000000001
20
54.125000000000014
42
-0.41421356237306384
10
-144.61250000000001
20
54.625
10
-131.61250000000001
20
54.625
42
-0.41421356237310542
10
-131.11250000000001
20
54.125000000000014
10
-131.11250000000001
20
41.125
42
-0.41421356237308982
10
-131.61250000000001
20
40.625
10
-144.61250000000004
20
40.625
42
-0.41421356237305862
0
LWPOLYLINE
5
134
100
AcDbEntity
8
0
100
AcDbPolyline
90
8
70
1
43
0.0
10
-4.9062500000000142
20
92.224999999999994
10
-4.9062499999999982
20
79.22499999999998
42
-0.41421356237308266
10
-5.4062500000000027
20
78.724999999999994
10
-20.787499999999994
20
78.724999999999994
42
-0.41421356237309503
10
-21.287500000000009
20
79.22499999999998
10
-21.287500000000009
20
92.224999999999994
42
-0.41421356237309503
10
-20.787500000000001
20
92.725000000000051
10
-5.4062499999999858
20
92.725000000000009
42
-0.41421356237309115
0
LWPOLYLINE
5
135
100
AcDbEntity
8
0
100
AcDbPolyline
90
8
70
1
43
0.0
10
-68.912499999999994
20
41.125
42
0.41421356237309503
10
-68.412499999999994
20
40.625
10
-55.412500000000016
20
40.625
42
0.41421356237307944
10
-54.912500000000009
20
41.125
10
-54.912500000000009
20
54.125000000000014
42
0.41421356237309503
10
-55.412500000000016
20
54.625
10
-68.412499999999994
20
54.625
42
0.41421356237311063
10
-68.912499999999994
20
54.125000000000014
0
LWPOLYLINE
5
136
100
AcDbEntity
8
0
100
AcDbPolyline
90
8
70
1
43
0.0
10
-107.30000000000001
20
35.075000000000003
10
-107.30000000000001
20
22.074999999999999
42
-0.41421356237308721
10
-107.80000000000001
20
21.575000000000006
10
-120.80000000000001
20
21.575000000000003
42
-0.41421356237305862
10
-121.30000000000001
20
22.074999999999999
10
-121.29999999999998
20
35.075000000000003
42
-0.41421356237305862
10
-120.8
20
35.57500000000001
10
-107.80000000000001
20
35.575000000000003
42
-0.41421356237309243
0
LWPOLYLINE
5
137
100
AcDbEntity
8
0
100
AcDbPolyline
90
8
70
1
43
0.0
10
-29.21875
20
78.724999999999994
10
-44.600000000000009
20
78.724999999999994
42
-0.41421356237311585
10
-45.100000000000016
20
79.22499999999998
10
-45.099999999999994
20
92.224999999999994
42
-0.41421356237310542
10
-44.600000000000009
20
92.725000000000051
10
-29.21875
20
92.725000000000051
42
-0.41421356237310802
10
-28.718750000000011
20
92.224999999999994
10
-28.718749999999993
20
79.22499999999998
42
-0.4142135623730846
0
LWPOLYLINE
5
138
100
AcDbEntity
8
0
100
AcDbPolyline
90
8
70
1
43
0.0
10
-140.34999999999999
20
22.074999999999999
10
-140.34999999999999
20
35.075000000000003
42
-0.41421356237309243
10
-139.84999999999999
20
35.57500000000001
10
-126.85000000000001
20
35.575000000000017
42
-0.41421356237305601
10
-126.34999999999999
20
35.075000000000003
10
-126.34999999999999
20
22.074999999999999
42
-0.41421356237306384
10
-126.85000000000001
20
21.575000000000006
10
-139.84999999999999
20
21.575000000000006
42
-0.41421356237310802
0
LWPOLYLINE
5
139
100
AcDbEntity
8
0
100
AcDbPolyline
90
8
70
1
43
0.0
10
-216.55000000000004
20
22.074999999999999
10
-216.55000000000004
20
35.075000000000003
42
-0.41421356237310802
10
-216.05000000000004
20
35.575000000000017
10
-203.05000000000007
20
35.57500000000001
42
-0.41421356237307422
10
-202.55000000000001
20
35.075000000000003
10
-202.55000000000001
20
22.074999999999999
42
-0.41421356237307422
10
-203.05000000000007
20
21.574999999999989
10
-216.05000000000004
20
21.574999999999967
42
-0.41421356237302737
0
LWPOLYLINE
5
140
100
AcDbEntity
8
0
100
AcDbPolyline
90
8
70
1
43
0.0
10
-101.75
20
35.57500000000001
10
-88.75
20
35.574999999999982
42
-0.41421356237313145
10
-88.250000000000014
20
35.075000000000003
10
-88.250000000000014
20
22.074999999999999
42
-0.4142135623730534
10
-88.75
20
21.575000000000006
10
-101.75
20
21.575000000000006
42
-0.41421356237310802
10
-102.25000000000001
20
22.074999999999999
10
-102.25000000000001
20
35.075000000000003
42
-0.41421356237309243
0
LWPOLYLINE
5
141
100
AcDbEntity
8
0
100
AcDbPolyline
90
8
70
1
43
0.0
10
-69.200000000000017
20
35.075000000000003
10
-69.200000000000017
20
22.074999999999999
42
-0.41421356237310542
10
-69.700000000000003
20
21.575000000000006
10
-82.700000000000031
20
21.575000000000003
42
-0.41421356237305862
10
-83.200000000000017
20
22.074999999999999
10
-83.19999999999996
20
35.075000000000003
42
-0.41421356237310542
10
-82.700000000000017
20
35.57500000000001
10
-69.700000000000003
20
35.575000000000003
42
-0.41421356237309243
0
LWPOLYLINE
5
142
100
AcDbEntity
8
0
100
AcDbPolyline
90
8
70
1
43
0.0
10
-197.50000000000003
20
22.074999999999999
10
-197.5
20
35.075000000000003
42
-0.41421356237302737
10
-197.00000000000003
20
35.57500000000001
10
-184.00000000000003
20
35.575000000000003
42
-0.41421356237313406
10
-183.5
20
35.075000000000003
10
-183.5
20
22.074999999999999
42
-0.41421356237316526
10
-184.00000000000003
20
21.575000000000006
10
-197.00000000000003
20
21.575000000000003
42
-0.41421356237313145
0
LWPOLYLINE
5
143
100
AcDbEntity
8
0
100
AcDbPolyline
90
8
70
1
43
0.0
10
-301.77499999999998
20
16.525000000000002
10
-288.77499999999998
20
16.525000000000041
42
-0.41421356237305212
10
-288.27499999999998
20
16.024999999999999
10
-288.27500000000003
20
3.0249999999999999
42
-0.41421356237309598
10
-288.77499999999998
20
2.5249999999999999
10
-301.77499999999998
20
2.5249999999999955
42
-0.414213562373135
10
-302.27499999999998
20
3.0249999999999999
10
-302.27499999999998
20
16.024999999999999
42
-0.41421356237318741
0
LWPOLYLINE
5
144
100
AcDbEntity
8
0
100
AcDbPolyline
90
8
70
1
43
0.0
10
-45.387500000000003
20
73.174999999999983
42
0.41421356237309503
10
-45.887500000000003
20
73.674999999999983
10
-58.887500000000017
20
73.674999999999983
42
0.41421356237311063
10
-59.387500000000003
20
73.174999999999983
10
-59.387500000000003
20
60.174999999999997
42
0.41421356237311063
10
-58.887500000000017
20
59.674999999999997
10
-45.887500000000003
20
59.675000000000004
42
0.41421356237309503
10
-45.387500000000003
20
60.174999999999997
0
LWPOLYLINE
5
145
100
AcDbEntity
8
0
100
AcDbPolyline
90
8
70
1
43
0.0
10
-83.487499999999983
20
73.174999999999983
42
0.41421356237310025
10
-83.987499999999955
20
73.675000000000011
10
-96.987500000000011
20
73.674999999999983
42
0.41421356237312623
10
-97.487500000000011
20
73.174999999999983
10
-97.487500000000011
20
60.174999999999997
42
0.41421356237312101
10
-96.987500000000011
20
59.674999999999997
10
-83.987499999999983
20
59.675000000000004
42
0.41421356237307944
10
-83.487499999999983
20
60.174999999999997
0
LWPOLYLINE
5
146
100
AcDbEntity
8
0
100
AcDbPolyline
90
8
70
1
43
0.0
10
-217.33750000000001
20
59.674999999999997
10
-230.33750000000001
20
59.675000000000026
42
-0.41421356237309503
10
-230.83750000000006
20
60.174999999999997
10
-230.83750000000009
20
73.174999999999983
42
-0.41421356237304818
10
-230.33750000000001
20
73.674999999999983
10
-217.33750000000001
20
73.675000000000026
42
-0.41421356237304818
10
-216.83750000000003
20
73.174999999999983
10
-216.83750000000003
20
60.174999999999997
42
-0.41421356237307422
0
LWPOLYLINE
5
147
100
AcDbEntity
8
0
100
AcDbPolyline
90
8
70
1
43
0.0
10
-197.78750000000002
20
73.174999999999983
10
-197.78750000000002
20
60.174999999999997
42
-0.41421356237309503
10
-198.28750000000002
20
59.675000000000004
10
-211.28749999999999
20
59.674999999999955
42
-0.41421356237311585
10
-211.78750000000002
20
60.174999999999997
10
-211.78750000000002
20
73.174999999999983
42
-0.41421356237316787
10
-211.28749999999999
20
73.674999999999983
10
-198.28749999999999
20
73.675000000000026
42
-0.41421356237304818
0
LWPOLYLINE
5
148
100
AcDbEntity
8
0
100
AcDbPolyline
90
8
70
1
43
0.0
10
-78.4375
20
60.174999999999997
42
0.41421356237309503
10
-77.9375
20
59.675000000000004
10
-64.9375
20
59.675000000000004
42
0.41421356237310542
10
-64.437500000000014
20
60.174999999999997
10
-64.4375
20
73.174999999999983
42
0.41421356237310542
10
-64.9375
20
73.674999999999983
10
-77.9375
20
73.674999999999983
42
0.41421356237309503
10
-78.4375
20
73.174999999999983
0
LWPOLYLINE
5
149
100
AcDbEntity
8
0
100
AcDbPolyline
90
8
70
1
43
0.0
10
-135.58750000000001
20
60.174999999999997
10
-135.58750000000001
20
73.174999999999983
42
-0.41421356237307944
10
-135.08750000000001
20
73.674999999999983
10
-122.08750000000002
20
73.675000000000011
42
-0.41421356237312101
10
-121.58750000000001
20
73.174999999999983
10
-121.58750000000001
20
60.174999999999997
42
-0.41421356237312623
10
-122.08750000000002
20
59.675000000000004
10
-135.08749999999998
20
59.674999999999983
42
-0.41421356237307944
0
LWPOLYLINE
5
150
100
AcDbEntity
8
0
100
AcDbPolyline
90
8
70
1
43
0.0
10
-245.125
20
3.0249999999999999
10
-245.125
20
16.024999999999999
42
-0.41421356237305212
10
-244.62500000000006
20
16.525000000000006
10
-231.625
20
16.524999999999995
42
-0.41421356237310936
10
-231.12499999999997
20
16.024999999999999
10
-231.125
20
3.0249999999999999
42
-0.41421356237312817
10
-231.625
20
2.5250000000000146
10
-244.62500000000006
20
2.5249999999999888
42
-0.41421356237309731
0
LWPOLYLINE
5
151
100
AcDbEntity
8
0
100
AcDbPolyline
90
8
70
1
43
0.0
10
-272.75675000000001
20
55.125
10
-272.75675000000001
20
40.125
42
-0.41421356237312623
10
-273.25675000000001
20
39.625000000000021
10
-279.25675000000001
20
39.625
42
-0.41421356237317308
10
-279.75675000000001
20
40.125
10
-279.75675000000001
20
55.125
42
-0.41421356237314705
10
-279.25675000000001
20
55.625000000000007
10
-273.25675000000001
20
55.625000000000028
42
-0.41421356237310542
0
LWPOLYLINE
5
152
100
AcDbEntity
8
0
100
AcDbPolyline
90
8
70
1
43
0.0
10
-288.27499999999998
20
73.174999999999983
10
-288.27499999999998
20
60.174999999999997
42
-0.41421356237309503
10
-288.77500000000003
20
59.675000000000004
10
-301.77499999999998
20
59.674999999999955
42
-0.41421356237311585
10
-302.27499999999998
20
60.174999999999997
10
-302.27499999999998
20
73.174999999999983
42
-0.41421356237316787
10
-301.77499999999998
20
73.674999999999983
10
-288.77499999999998
20
73.675000000000026
42
-0.41421356237304818
0
LWPOLYLINE
5
153
100
AcDbEntity
8
0
100
AcDbPolyline
90
8
70
1
43
0.0
10
-178.73750000000001
20
73.174999999999983
42
0.41421356237311585
10
-179.23750000000001
20
73.67500000000004
10
-192.23750000000001
20
73.674999999999969
42
0.41421356237309503
10
-192.73750000000007
20
73.174999999999983
10
-192.73750000000007
20
60.174999999999997
42
0.41421356237318868
10
-192.23750000000001
20
59.674999999999997
10
-179.23750000000001
20
59.674999999999983
42
0.41421356237311585
10
-178.73750000000001
20
60.174999999999997
0
LWPOLYLINE
5
154
100
AcDbEntity
8
0
100
AcDbPolyline
90
8
70
1
43
0.0
10
-159.6875
20
73.174999999999983
42
0.414213562373069
10
-160.18749999999997
20
73.674999999999983
10
-173.1875
20
73.674999999999983
42
0.4142135623730378
10
-173.6875
20
73.174999999999983
10
-173.68750000000003
20
60.174999999999997
42
0.41421356237313145
10
-173.1875
20
59.674999999999997
10
-160.1875
20
59.675000000000004
42
0.41421356237309503
10
-159.6875
20
60.174999999999997
0
LWPOLYLINE
5
155
100
AcDbEntity
8
0
100
AcDbPolyline
90
8
70
1
43
0.0
10
-150.66249999999999
20
40.625
10
-163.66250000000008
20
40.624999999999943
42
-0.41421356237305862
10
-164.16250000000005
20
41.125
10
-164.16250000000005
20
54.125000000000014
42
-0.41421356237317308
10
-163.66250000000005
20
54.625
10
-150.66249999999999
20
54.625
42
-0.41421356237310542
10
-150.16249999999999
20
54.125000000000014
10
-150.16249999999999
20
41.125
42
-0.41421356237308982
0
LWPOLYLINE
5
156
100
AcDbEntity
8
0
100
AcDbPolyline
90
8
70
1
43
0.0
10
-243.53125000000006
20
59.674999999999997
10
-256.53125
20
59.675000000000026
42
-0.41421356237309503
10
-257.03125000000006
20
60.174999999999997
10
-257.03125000000006
20
73.174999999999983
42
-0.41421356237318868
10
-256.53125
20
73.674999999999983
10
-243.53125000000006
20
73.674999999999955
42
-0.41421356237309503
10
-243.03125
20
73.174999999999983
10
-243.03125
20
60.174999999999997
42
-0.41421356237318868
0
LWPOLYLINE
5
157
100
AcDbEntity
8
0
100
AcDbPolyline
90
20
70
1
43
0.0
10
-258.262
20
16.524999999999999
10
-258.262
20
17.024999999999999
42
-0.41421356237308204
10
-257.76200000000006
20
17.525000000000002
10
-251.762
20
17.524999999999995
42
-0.41421356237310936
10
-251.26199999999997
20
17.024999999999999
10
-251.262
20
16.524999999999999
10
-250.67500000000001
20
16.524999999999995
42
-0.41421356237310936
10
-250.17499999999998
20
16.024999999999999
10
-250.17500000000001
20
3.0249999999999999
42
-0.4142135623731279
10
-250.67500000000001
20
2.5250000000000137
10
-282.72500000000002
20
2.5250000000000181
42
-0.41421356237318413
10
-283.22500000000002
20
3.0249999999999999
10
-283.22500000000002
20
16.024999999999999
42
-0.41421356237305601
10
-282.72500000000008
20
16.525000000000013
10
-282.13799999999998
20
16.524999999999999
10
-282.13799999999998
20
17.024999999999999
42
-0.41421356237314444
10
-281.63799999999998
20
17.525000000000009
10
-275.63800000000003
20
17.52500000000002
42
-0.41421356237312495
10
-275.13799999999998
20
17.024999999999999
10
-275.13799999999998
20
16.524999999999999
0
LWPOLYLINE
5
158
100
AcDbEntity
8
0
100
AcDbPolyline
90
8
70
1
43
0.0
10
-14.431250000000002
20
73.174999999999983
42
0.41421356237310281
10
-14.93125
20
73.674999999999983
10
-27.931249999999999
20
73.674999999999983
42
0.41421356237309243
10
-28.431250000000006
20
73.174999999999983
10
-28.431250000000002
20
60.174999999999997
42
0.41421356237309764
10
-27.931249999999999
20
59.674999999999997
10
-14.93125
20
59.675000000000004
42
0.41421356237309631
10
-14.431249999999984
20
60.174999999999997
0
LWPOLYLINE
5
159
100
AcDbEntity
8
0
100
AcDbPolyline
90
8
70
1
43
0.0
10
-107.01250000000002
20
41.125
10
-107.01250000000002
20
54.125000000000014
42
-0.41421356237311585
10
-106.51250000000003
20
54.625
10
-93.512500000000003
20
54.624999999999986
42
-0.41421356237312623
10
-93.012500000000017
20
54.125000000000014
10
-93.012500000000017
20
41.125
42
-0.41421356237305862
10
-93.512500000000003
20
40.625
10
-106.51250000000002
20
40.624999999999986
42
-0.41421356237308982
0
LWPOLYLINE
5
160
100
AcDbEntity
8
0
100
AcDbPolyline
90
8
70
1
43
0.0
10
-30.369250000000001
20
59.675000000000011
10
-36.369250000000015
20
59.675000000000011
42
-0.41421356237308982
10
-36.869250000000001
20
60.174999999999997
10
-36.869250000000015
20
74.175000000000026
42
-0.41421356237308721
10
-36.369250000000001
20
74.674999999999983
10
-30.369250000000001
20
74.674999999999983
42
-0.41421356237307422
10
-29.869249999999997
20
74.175000000000026
10
-29.869249999999997
20
60.174999999999997
42
-0.41421356237310281
0
LWPOLYLINE
5
161
100
AcDbEntity
8
0
100
AcDbPolyline
90
8
70
1
43
0.0
10
-257.31875000000002
20
54.125000000000014
42
0.41421356237315748
10
-257.81875000000002
20
54.624999999999986
10
-270.81875000000002
20
54.625
42
0.41421356237303258
10
-271.31875000000002
20
54.125000000000014
10
-271.31875000000002
20
41.125
42
0.41421356237314705
10
-270.81875000000002
20
40.625000000000014
10
-257.81875000000002
20
40.625
42
0.41421356237313667
10
-257.31875000000002
20
41.125
0
LWPOLYLINE
5
162
100
AcDbEntity
8
0
100
AcDbPolyline
90
8
70
1
43
0.0
10
-226.86250000000001
20
40.625
10
-239.86250000000007
20
40.624999999999943
42
-0.41421356237305862
10
-240.36250000000001
20
41.125
10
-240.36250000000001
20
54.125000000000014
42
-0.41421356237317308
10
-239.86250000000001
20
54.625
10
-226.86250000000001
20
54.625000000000021
42
-0.41421356237307422
10
-226.36250000000004
20
54.125000000000014
10
-226.36250000000004
20
41.125
42
-0.41421356237307944
0
LWPOLYLINE
5
163
100
AcDbEntity
8
0
100
AcDbPolyline
90
8
70
1
43
0.0
10
-31.600000000000001
20
21.575000000000006
10
-44.600000000000009
20
21.57500000000001
42
-0.4142135623730846
10
-45.099999999999994
20
22.074999999999999
10
-45.100000000000009
20
35.075000000000003
42
-0.41421356237309503
10
-44.600000000000001
20
35.57500000000001
10
-31.600000000000001
20
35.57500000000001
42
-0.41421356237309243
10
-31.099999999999998
20
35.075000000000003
10
-31.100000000000001
20
22.074999999999999
42
-0.41421356237310281
0
LWPOLYLINE
5
164
100
AcDbEntity
8
0
100
AcDbPolyline
90
8
70
1
43
0.0
10
-7.7874999999999872
20
21.575000000000006
10
-20.787499999999994
20
21.575000000000006
42
-0.41421356237309243
10
-21.287500000000001
20
22.074999999999999
10
-21.287499999999998
20
35.075000000000003
42
-0.41421356237308982
10
-20.787500000000001
20
35.575000000000003
10
-7.7874999999999872
20
35.57500000000001
42
-0.41421356237308593
10
-7.2874999999999979
20
35.075000000000003
10
-7.2875000000000023
20
22.074999999999999
42
-0.41421356237309503
0
LWPOLYLINE
5
165
100
AcDbEntity
8
0
100
AcDbPolyline
90
8
70
1
43
0.0
10
-250.67500000000001
20
78.724999999999994
10
-263.67500000000001
20
78.724999999999994
42
-0.414213562373069
10
-264.17500000000007
20
79.22499999999998
10
-264.17500000000007
20
92.224999999999994
42
-0.41421356237310542
10
-263.67500000000001
20
92.725000000000023
10
-250.67500000000001
20
92.725000000000009
42
-0.41421356237313667
10
-250.17500000000001
20
92.224999999999994
10
-250.17499999999998
20
79.22499999999998
42
-0.41421356237310542
0
LWPOLYLINE
5
166
100
AcDbEntity
8
0
100
AcDbPolyline
90
8
70
1
43
0.0
10
-60.174999999999997
20
2.5249999999999995
10
-73.174999999999983
20
2.5249999999999972
42
-0.41421356237309764
10
-73.674999999999983
20
3.0249999999999999
10
-73.674999999999983
20
16.024999999999999
42
-0.41421356237308982
10
-73.174999999999983
20
16.525000000000006
10
-60.174999999999997
20
16.525000000000002
42
-0.41421356237310281
10
-59.675000000000011
20
16.024999999999999
10
-59.675000000000004
20
3.0249999999999999
42
-0.41421356237309731
0
LWPOLYLINE
5
167
100
AcDbEntity
8
0
100
AcDbPolyline
90
8
70
1
43
0.0
10
-269.22500000000002
20
73.174999999999983
10
-269.22500000000008
20
60.174999999999997
42
-0.4142135623730378
10
-269.72500000000002
20
59.675000000000004
10
-282.72500000000002
20
59.674999999999955
42
-0.41421356237311585
10
-283.22500000000002
20
60.174999999999997
10
-283.22500000000002
20
73.174999999999983
42
-0.41421356237316787
10
-282.72500000000002
20
73.674999999999983
10
-269.72500000000002
20
73.674999999999983
42
-0.41421356237313145
0
LWPOLYLINE
5
168
100
AcDbEntity
8
0
100
AcDbPolyline
90
8
70
1
43
0.0
10
-116.03749999999999
20
73.674999999999983
10
-103.03750000000001
20
73.675000000000011
42
-0.41421356237312101
10
-102.53749999999999
20
73.174999999999983
10
-102.53749999999999
20
60.174999999999997
42
-0.41421356237312623
10
-103.03750000000001
20
59.675000000000004
10
-116.03749999999998
20
59.674999999999983
42
-0.41421356237307944
10
-116.53750000000001
20
60.174999999999997
10
-116.53749999999999
20
73.174999999999983
42
-0.41421356237307944
0
LWPOLYLINE
5
169
100
AcDbEntity
8
0
100
AcDbPolyline
90
8
70
1
43
0.0
10
-112.56250000000001
20
40.625
42
0.41421356237308982
10
-112.0625
20
41.125
10
-112.0625
20
54.125000000000014
42
0.41421356237310542
10
-112.56250000000001
20
54.625
10
-125.5625
20
54.625
42
0.41421356237306384
10
-126.06250000000001
20
54.125000000000014
10
-126.06250000000001
20
41.125
42
0.41421356237305862
10
-125.56250000000003
20
40.625
0
LWPOLYLINE
5
170
100
AcDbEntity
8
0
100
AcDbPolyline
90
8
70
1
43
0.0
10
-12.99325
20
60.174999999999997
42
0.41421356237309631
10
-12.49325
20
59.675000000000004
10
-6.4932500000000015
20
59.675000000000004
42
0.41421356237309698
10
-5.9932500000000033
20
60.174999999999997
10
-5.9932499999999997
20
74.175000000000026
42
0.41421356237307683
10
-6.4932500000000104
20
74.674999999999983
10
-12.49325
20
74.674999999999983
42
0.41421356237311713
10
-12.993249999999996
20
74.175000000000026
0
LWPOLYLINE
5
171
100
AcDbEntity
8
0
100
AcDbPolyline
90
8
70
1
43
0.0
10
-288.27499999999998
20
92.224999999999994
10
-288.27499999999998
20
79.22499999999998
42
-0.41421356237309503
10
-288.77500000000003
20
78.724999999999994
10
-301.77500000000003
20
78.724999999999937
42
-0.41421356237305862
10
-302.27499999999998
20
79.22499999999998
10
-302.27499999999998
20
92.224999999999994
42
-0.41421356237306384
10
-301.77499999999998
20
92.725000000000023
10
-288.77499999999998
20
92.725000000000065
42
-0.41421356237306384
0
LWPOLYLINE
5
172
100
AcDbEntity
8
0
100
AcDbPolyline
90
8
70
1
43
0.0
10
-74.462500000000006
20
40.625
10
-87.462500000000034
20
40.625
42
-0.41421356237305862
10
-87.96250000000002
20
41.125
10
-87.962500000000006
20
54.125000000000014
42
-0.41421356237311585
10
-87.46250000000002
20
54.625
10
-74.462500000000006
20
54.625
42
-0.41421356237311063
10
-73.962500000000006
20
54.125000000000014
10
-73.962500000000006
20
41.125
42
-0.41421356237309503
0
LWPOLYLINE
5
173
100
AcDbEntity
8
0
100
AcDbPolyline
90
8
70
1
43
0.0
10
-207.31250000000006
20
54.125000000000014
10
-207.31250000000006
20
41.125
42
-0.41421356237302737
10
-207.8125
20
40.624999999999964
10
-220.81249999999997
20
40.624999999999972
42
-0.41421356237314705
10
-221.3125
20
41.125
10
-221.3125
20
54.125000000000014
42
-0.41421356237315748
10
-220.8125
20
54.624999999999993
10
-207.8125
20
54.625000000000028
42
-0.41421356237310025
0
LWPOLYLINE
5
174
100
AcDbEntity
8
0
100
AcDbPolyline
90
8
70
1
43
0.0
10
-202.26249999999999
20
41.125
10
-202.26249999999999
20
54.125000000000014
42
-0.41421356237317308
10
-201.76249999999999
20
54.625
10
-188.76249999999999
20
54.624999999999986
42
-0.41421356237315748
10
-188.26249999999999
20
54.125000000000014
10
-188.26249999999993
20
41.125
42
-0.41421356237311063
10
-188.76249999999999
20
40.625
10
-201.76250000000005
20
40.624999999999943
42
-0.41421356237305862
0
LWPOLYLINE
5
175
100
AcDbEntity
8
0
100
AcDbPolyline
90
8
70
1
43
0.0
10
-301.77499999999998
20
54.625
42
0.41421356237317308
10
-302.27499999999998
20
54.125000000000014
10
-302.27499999999998
20
41.125
42
0.41421356237305862
10
-301.77500000000003
20
40.624999999999972
10
-288.77500000000003
20
40.625
42
0.41421356237310025
10
-288.27500000000003
20
41.125
10
-288.27499999999998
20
54.125000000000014
42
0.41421356237307422
10
-288.77499999999998
20
54.625000000000014
0
LWPOLYLINE
5
176
100
AcDbEntity
8
0
100
AcDbPolyline
90
8
70
1
43
0.0
10
-154.63750000000005
20
60.174999999999997
10
-154.63750000000002
20
73.174999999999983
42
-0.41421356237302737
10
-154.13749999999999
20
73.674999999999983
10
-141.13749999999999
20
73.675000000000011
42
-0.41421356237312101
10
-140.63749999999999
20
73.174999999999983
10
-140.63749999999999
20
60.174999999999997
42
-0.41421356237312623
10
-141.13749999999999
20
59.675000000000004
10
-154.13749999999999
20
59.675000000000004
42
-0.41421356237308982
0
ENDSEC
0
SECTION
2
OBJECTS
0
DICTIONARY
5
C
100
AcDbDictionary
3
ACAD_GROUP
350
D
3
ACAD_MLINESTYLE
350
17
0
DICTIONARY
5
D
100
AcDbDictionary
0
DICTIONARY
5
1A
330
C
100
AcDbDictionary
0
DICTIONARY
5
17
100
AcDbDictionary
0
ENDSEC
0
EOF
